<svg width="247" height="46" viewBox="0 0 247 46" fill="none" xmlns="http://www.w3.org/2000/svg">
<path d="M22.616 45V40.424C22.424 40.8933 21.9333 41.5547 21.144 42.408C20.3547 43.2613 19.288 44.04 17.944 44.744C16.6213 45.4267 15.064 45.768 13.272 45.768C10.7547 45.768 8.52533 45.1707 6.584 43.976C4.64267 42.76 3.11733 41.1067 2.008 39.016C0.92 36.904 0.376 34.5253 0.376 31.88C0.376 29.2347 0.92 26.8667 2.008 24.776C3.11733 22.664 4.64267 21 6.584 19.784C8.52533 18.568 10.7547 17.96 13.272 17.96C15.0213 17.96 16.536 18.2587 17.816 18.856C19.1173 19.432 20.1627 20.1147 20.952 20.904C21.7627 21.672 22.2853 22.3653 22.52 22.984V18.728H30.584V45H22.616ZM8.344 31.88C8.344 33.352 8.67467 34.6533 9.336 35.784C9.99733 36.8933 10.872 37.7573 11.96 38.376C13.048 38.9947 14.232 39.304 15.512 39.304C16.856 39.304 18.0507 38.9947 19.096 38.376C20.1413 37.736 20.9627 36.8613 21.56 35.752C22.1787 34.6213 22.488 33.3307 22.488 31.88C22.488 30.4293 22.1787 29.1493 21.56 28.04C20.9627 26.9093 20.1413 26.024 19.096 25.384C18.0507 24.744 16.856 24.424 15.512 24.424C14.232 24.424 13.048 24.744 11.96 25.384C10.872 26.0027 9.99733 26.8773 9.336 28.008C8.67467 29.1173 8.344 30.408 8.344 31.88ZM44.9365 31.304C44.9365 33.6507 45.4058 35.528 46.3445 36.936C47.2832 38.3227 48.7978 39.016 50.8885 39.016C53.0005 39.016 54.5258 38.3227 55.4645 36.936C56.4032 35.528 56.8725 33.6507 56.8725 31.304V18.728H64.8725V32.232C64.8725 34.9413 64.3285 37.32 63.2405 39.368C62.1525 41.3947 60.5632 42.9733 58.4725 44.104C56.4032 45.2133 53.8752 45.768 50.8885 45.768C47.9232 45.768 45.3952 45.2133 43.3045 44.104C41.2352 42.9733 39.6565 41.3947 38.5685 39.368C37.4805 37.32 36.9365 34.9413 36.9365 32.232V18.728H44.9365V31.304ZM68.954 18.728H73.69V7.944H81.754V18.728H87.962V25.48H81.754V34.984C81.754 36.2427 81.9567 37.224 82.362 37.928C82.7673 38.6107 83.4073 38.952 84.282 38.952C84.9433 38.952 85.4873 38.824 85.914 38.568C86.3407 38.2907 86.5967 38.0987 86.682 37.992L89.562 43.816C89.434 43.944 89.018 44.168 88.314 44.488C87.6313 44.808 86.746 45.096 85.658 45.352C84.5913 45.6293 83.386 45.768 82.042 45.768C79.6313 45.768 77.6367 45.0747 76.058 43.688C74.4793 42.28 73.69 40.104 73.69 37.16V25.48H68.954V18.728ZM110.624 17.96C112.416 17.96 114.165 18.3333 115.872 19.08C117.578 19.8053 118.976 20.968 120.064 22.568C121.173 24.168 121.728 26.2587 121.728 28.84V45H113.568V30.248C113.568 28.0933 113.077 26.4933 112.096 25.448C111.136 24.4027 109.845 23.88 108.224 23.88C107.136 23.88 106.09 24.1787 105.088 24.776C104.106 25.352 103.296 26.1627 102.656 27.208C102.037 28.232 101.728 29.4053 101.728 30.728V45H93.5675V0.967999H101.728V22.92C101.941 22.1947 102.464 21.448 103.296 20.68C104.128 19.912 105.184 19.272 106.464 18.76C107.744 18.2267 109.13 17.96 110.624 17.96ZM136.388 9.832H125.796V2.76H154.948V9.832H144.388V45H136.388V9.832ZM161.305 33.672C161.369 34.8667 161.689 35.9333 162.265 36.872C162.841 37.8107 163.673 38.5467 164.761 39.08C165.87 39.6133 167.193 39.88 168.729 39.88C170.115 39.88 171.331 39.7093 172.377 39.368C173.443 39.0267 174.339 38.6107 175.065 38.12C175.811 37.608 176.366 37.1173 176.729 36.648L180.089 41.64C179.491 42.3867 178.691 43.08 177.689 43.72C176.707 44.3387 175.449 44.8293 173.913 45.192C172.398 45.576 170.499 45.768 168.217 45.768C165.337 45.768 162.809 45.2027 160.633 44.072C158.457 42.9413 156.761 41.3093 155.545 39.176C154.329 37.0427 153.721 34.504 153.721 31.56C153.721 29 154.265 26.696 155.353 24.648C156.441 22.5787 158.019 20.9467 160.089 19.752C162.179 18.5573 164.686 17.96 167.609 17.96C170.361 17.96 172.739 18.4933 174.745 19.56C176.771 20.6053 178.339 22.1413 179.449 24.168C180.558 26.1947 181.113 28.6693 181.113 31.592C181.113 31.7627 181.102 32.1147 181.081 32.648C181.081 33.16 181.059 33.5013 181.017 33.672H161.305ZM173.497 28.648C173.475 27.9653 173.262 27.2293 172.857 26.44C172.473 25.6507 171.865 24.9787 171.033 24.424C170.201 23.8693 169.091 23.592 167.705 23.592C166.318 23.592 165.177 23.8587 164.281 24.392C163.406 24.9253 162.745 25.5867 162.297 26.376C161.849 27.144 161.593 27.9013 161.529 28.648H173.497ZM197.609 17.96C199.188 17.96 200.649 18.1093 201.993 18.408C203.337 18.6853 204.468 19.0053 205.385 19.368C206.324 19.7307 206.942 20.04 207.241 20.296L204.457 25.192C204.03 24.8507 203.262 24.4453 202.153 23.976C201.065 23.5067 199.849 23.272 198.505 23.272C197.289 23.272 196.265 23.4853 195.433 23.912C194.601 24.3173 194.185 24.936 194.185 25.768C194.185 26.6 194.633 27.2613 195.529 27.752C196.425 28.2427 197.673 28.6693 199.273 29.032C200.617 29.3093 201.94 29.736 203.241 30.312C204.542 30.8667 205.62 31.6773 206.473 32.744C207.326 33.7893 207.753 35.1867 207.753 36.936C207.753 38.664 207.38 40.104 206.633 41.256C205.908 42.3867 204.937 43.2827 203.721 43.944C202.505 44.6053 201.172 45.0747 199.721 45.352C198.27 45.6293 196.83 45.768 195.401 45.768C193.545 45.768 191.913 45.5867 190.505 45.224C189.097 44.8827 187.934 44.488 187.017 44.04C186.121 43.5707 185.481 43.176 185.097 42.856L187.881 37.416C188.436 37.9067 189.342 38.4507 190.601 39.048C191.881 39.624 193.257 39.912 194.729 39.912C196.265 39.912 197.47 39.6453 198.345 39.112C199.241 38.5787 199.689 37.864 199.689 36.968C199.689 36.3067 199.476 35.7733 199.049 35.368C198.622 34.9413 198.036 34.5893 197.289 34.312C196.542 34.0347 195.668 33.7893 194.665 33.576C193.748 33.384 192.809 33.1067 191.849 32.744C190.889 32.36 189.993 31.8587 189.161 31.24C188.329 30.6213 187.657 29.8533 187.145 28.936C186.633 27.9973 186.377 26.8773 186.377 25.576C186.377 23.912 186.91 22.5253 187.977 21.416C189.044 20.2853 190.43 19.432 192.137 18.856C193.844 18.2587 195.668 17.96 197.609 17.96ZM210.767 18.728H215.503V7.944H223.567V18.728H229.775V25.48H223.567V34.984C223.567 36.2427 223.769 37.224 224.175 37.928C224.58 38.6107 225.22 38.952 226.095 38.952C226.756 38.952 227.3 38.824 227.727 38.568C228.153 38.2907 228.409 38.0987 228.495 37.992L231.375 43.816C231.247 43.944 230.831 44.168 230.127 44.488C229.444 44.808 228.559 45.096 227.471 45.352C226.404 45.6293 225.199 45.768 223.855 45.768C221.444 45.768 219.449 45.0747 217.871 43.688C216.292 42.28 215.503 40.104 215.503 37.16V25.48H210.767V18.728ZM241.748 45.768C240.319 45.768 239.092 45.256 238.068 44.232C237.044 43.208 236.532 41.9813 236.532 40.552C236.532 39.08 237.044 37.832 238.068 36.808C239.092 35.784 240.319 35.272 241.748 35.272C243.22 35.272 244.457 35.784 245.46 36.808C246.484 37.832 246.996 39.08 246.996 40.552C246.996 41.9813 246.484 43.208 245.46 44.232C244.457 45.256 243.22 45.768 241.748 45.768Z" fill="currentColor"/>
</svg>