<svg width="137" height="59" viewBox="0 0 137 59" fill="none" xmlns="http://www.w3.org/2000/svg">
<path d="M23.64 37.864C25.8587 37.864 27.832 37.5547 29.56 36.936C31.288 36.296 32.5573 35.6667 33.368 35.048L36.792 41.864C35.8107 42.7173 34.1147 43.5813 31.704 44.456C29.3147 45.3307 26.456 45.768 23.128 45.768C20.0133 45.768 17.1013 45.224 14.392 44.136C11.6827 43.0267 9.304 41.4907 7.256 39.528C5.208 37.544 3.608 35.2293 2.456 32.584C1.304 29.9173 0.728 27.0373 0.728 23.944C0.728 20.8507 1.29333 17.9707 2.424 15.304C3.576 12.616 5.176 10.28 7.224 8.296C9.272 6.312 11.6507 4.76533 14.36 3.656C17.0907 2.54666 20.0133 1.992 23.128 1.992C26.456 1.992 29.3147 2.42933 31.704 3.304C34.1147 4.17866 35.8107 5.04266 36.792 5.896L33.368 12.712C32.5573 12.0933 31.288 11.4747 29.56 10.856C27.832 10.216 25.8587 9.896 23.64 9.896C21.3787 9.896 19.3627 10.2587 17.592 10.984C15.8427 11.7093 14.3493 12.7227 13.112 14.024C11.896 15.304 10.968 16.7867 10.328 18.472C9.688 20.1573 9.368 21.9493 9.368 23.848C9.368 25.768 9.688 27.5813 10.328 29.288C10.968 30.9733 11.896 32.4667 13.112 33.768C14.3493 35.048 15.8427 36.0507 17.592 36.776C19.3627 37.5013 21.3787 37.864 23.64 37.864ZM51.1055 45H42.9455V0.967999H51.1055V45ZM58.4545 45V18.728H66.5505V45H58.4545ZM62.6145 11.944C61.2705 11.944 60.1292 11.4747 59.1905 10.536C58.2732 9.59733 57.8145 8.47733 57.8145 7.176C57.8145 5.87467 58.2838 4.744 59.2225 3.784C60.1612 2.824 61.2918 2.344 62.6145 2.344C63.4892 2.344 64.2892 2.568 65.0145 3.016C65.7398 3.44267 66.3265 4.01867 66.7745 4.744C67.2225 5.46933 67.4465 6.28 67.4465 7.176C67.4465 8.47733 66.9665 9.59733 66.0065 10.536C65.0678 11.4747 63.9372 11.944 62.6145 11.944ZM82.008 58.312H73.944V18.728H82.104V22.984C82.36 22.3653 82.9147 21.6613 83.768 20.872C84.6213 20.0827 85.7307 19.4 87.096 18.824C88.4827 18.248 90.0613 17.96 91.832 17.96C94.328 17.96 96.504 18.568 98.36 19.784C100.216 21 101.645 22.664 102.648 24.776C103.672 26.8667 104.184 29.2347 104.184 31.88C104.184 34.5253 103.651 36.904 102.584 39.016C101.517 41.1067 100.035 42.76 98.136 43.976C96.2373 45.1707 94.0293 45.768 91.512 45.768C89.6133 45.768 87.9813 45.4267 86.616 44.744C85.2507 44.0613 84.184 43.2933 83.416 42.44C82.648 41.5867 82.1787 40.9147 82.008 40.424V58.312ZM96.216 31.88C96.216 30.408 95.896 29.1173 95.256 28.008C94.6373 26.8773 93.8053 26.0027 92.76 25.384C91.7147 24.744 90.552 24.424 89.272 24.424C87.928 24.424 86.712 24.744 85.624 25.384C84.536 26.024 83.672 26.9093 83.032 28.04C82.4133 29.1493 82.104 30.4293 82.104 31.88C82.104 33.3307 82.4133 34.6213 83.032 35.752C83.672 36.8613 84.536 37.736 85.624 38.376C86.712 38.9947 87.928 39.304 89.272 39.304C90.552 39.304 91.7147 38.9947 92.76 38.376C93.8053 37.7573 94.6373 36.8933 95.256 35.784C95.896 34.6533 96.216 33.352 96.216 31.88ZM122.34 45.768C119.545 45.768 117.049 45.1707 114.852 43.976C112.676 42.7813 110.969 41.1493 109.732 39.08C108.495 36.9893 107.876 34.6107 107.876 31.944C107.876 29.2773 108.495 26.8987 109.732 24.808C110.969 22.696 112.676 21.032 114.852 19.816C117.049 18.5787 119.545 17.96 122.34 17.96C125.156 17.96 127.641 18.5787 129.796 19.816C131.951 21.032 133.636 22.696 134.852 24.808C136.068 26.8987 136.676 29.2773 136.676 31.944C136.676 34.6107 136.068 36.9893 134.852 39.08C133.636 41.1493 131.951 42.7813 129.796 43.976C127.641 45.1707 125.156 45.768 122.34 45.768ZM122.34 39.016C123.684 39.016 124.847 38.7173 125.828 38.12C126.831 37.5013 127.599 36.6587 128.132 35.592C128.687 34.504 128.964 33.2773 128.964 31.912C128.964 30.5467 128.687 29.32 128.132 28.232C127.599 27.144 126.831 26.2907 125.828 25.672C124.847 25.032 123.684 24.712 122.34 24.712C120.996 24.712 119.823 25.032 118.82 25.672C117.839 26.2907 117.071 27.144 116.516 28.232C115.961 29.32 115.684 30.5467 115.684 31.912C115.684 33.2773 115.961 34.504 116.516 35.592C117.071 36.6587 117.839 37.5013 118.82 38.12C119.823 38.7173 120.996 39.016 122.34 39.016Z" fill="currentColor"/>
</svg>
