<svg width="182" height="59" viewBox="0 0 182 59" fill="none" xmlns="http://www.w3.org/2000/svg">
<path d="M0.424 33.896V26.952H16.904V33.896H0.424ZM46.015 37.864C48.2337 37.864 50.207 37.5547 51.935 36.936C53.663 36.296 54.9323 35.6667 55.743 35.048L59.167 41.864C58.1857 42.7173 56.4897 43.5813 54.079 44.456C51.6897 45.3307 48.831 45.768 45.503 45.768C42.3883 45.768 39.4763 45.224 36.767 44.136C34.0577 43.0267 31.679 41.4907 29.631 39.528C27.583 37.544 25.983 35.2293 24.831 32.584C23.679 29.9173 23.103 27.0373 23.103 23.944C23.103 20.8507 23.6683 17.9707 24.799 15.304C25.951 12.616 27.551 10.28 29.599 8.296C31.647 6.312 34.0257 4.76533 36.735 3.656C39.4657 2.54666 42.3883 1.992 45.503 1.992C48.831 1.992 51.6897 2.42933 54.079 3.304C56.4897 4.17866 58.1857 5.04266 59.167 5.896L55.743 12.712C54.9323 12.0933 53.663 11.4747 51.935 10.856C50.207 10.216 48.2337 9.896 46.015 9.896C43.7537 9.896 41.7377 10.2587 39.967 10.984C38.2177 11.7093 36.7243 12.7227 35.487 14.024C34.271 15.304 33.343 16.7867 32.703 18.472C32.063 20.1573 31.743 21.9493 31.743 23.848C31.743 25.768 32.063 27.5813 32.703 29.288C33.343 30.9733 34.271 32.4667 35.487 33.768C36.7243 35.048 38.2177 36.0507 39.967 36.776C41.7377 37.5013 43.7537 37.864 46.015 37.864ZM73.4805 45H65.3205V0.967999H73.4805V45ZM80.8295 45V18.728H88.9255V45H80.8295ZM84.9895 11.944C83.6455 11.944 82.5042 11.4747 81.5655 10.536C80.6482 9.59733 80.1895 8.47733 80.1895 7.176C80.1895 5.87467 80.6588 4.744 81.5975 3.784C82.5362 2.824 83.6668 2.344 84.9895 2.344C85.8642 2.344 86.6642 2.568 87.3895 3.016C88.1148 3.44267 88.7015 4.01867 89.1495 4.744C89.5975 5.46933 89.8215 6.28 89.8215 7.176C89.8215 8.47733 89.3415 9.59733 88.3815 10.536C87.4428 11.4747 86.3122 11.944 84.9895 11.944ZM104.383 58.312H96.319V18.728H104.479V22.984C104.735 22.3653 105.29 21.6613 106.143 20.872C106.996 20.0827 108.106 19.4 109.471 18.824C110.858 18.248 112.436 17.96 114.207 17.96C116.703 17.96 118.879 18.568 120.735 19.784C122.591 21 124.02 22.664 125.023 24.776C126.047 26.8667 126.559 29.2347 126.559 31.88C126.559 34.5253 126.026 36.904 124.959 39.016C123.892 41.1067 122.41 42.76 120.511 43.976C118.612 45.1707 116.404 45.768 113.887 45.768C111.988 45.768 110.356 45.4267 108.991 44.744C107.626 44.0613 106.559 43.2933 105.791 42.44C105.023 41.5867 104.554 40.9147 104.383 40.424V58.312ZM118.591 31.88C118.591 30.408 118.271 29.1173 117.631 28.008C117.012 26.8773 116.18 26.0027 115.135 25.384C114.09 24.744 112.927 24.424 111.647 24.424C110.303 24.424 109.087 24.744 107.999 25.384C106.911 26.024 106.047 26.9093 105.407 28.04C104.788 29.1493 104.479 30.4293 104.479 31.88C104.479 33.3307 104.788 34.6213 105.407 35.752C106.047 36.8613 106.911 37.736 107.999 38.376C109.087 38.9947 110.303 39.304 111.647 39.304C112.927 39.304 114.09 38.9947 115.135 38.376C116.18 37.7573 117.012 36.8933 117.631 35.784C118.271 34.6533 118.591 33.352 118.591 31.88ZM144.715 45.768C141.92 45.768 139.424 45.1707 137.227 43.976C135.051 42.7813 133.344 41.1493 132.107 39.08C130.87 36.9893 130.251 34.6107 130.251 31.944C130.251 29.2773 130.87 26.8987 132.107 24.808C133.344 22.696 135.051 21.032 137.227 19.816C139.424 18.5787 141.92 17.96 144.715 17.96C147.531 17.96 150.016 18.5787 152.171 19.816C154.326 21.032 156.011 22.696 157.227 24.808C158.443 26.8987 159.051 29.2773 159.051 31.944C159.051 34.6107 158.443 36.9893 157.227 39.08C156.011 41.1493 154.326 42.7813 152.171 43.976C150.016 45.1707 147.531 45.768 144.715 45.768ZM144.715 39.016C146.059 39.016 147.222 38.7173 148.203 38.12C149.206 37.5013 149.974 36.6587 150.507 35.592C151.062 34.504 151.339 33.2773 151.339 31.912C151.339 30.5467 151.062 29.32 150.507 28.232C149.974 27.144 149.206 26.2907 148.203 25.672C147.222 25.032 146.059 24.712 144.715 24.712C143.371 24.712 142.198 25.032 141.195 25.672C140.214 26.2907 139.446 27.144 138.891 28.232C138.336 29.32 138.059 30.5467 138.059 31.912C138.059 33.2773 138.336 34.504 138.891 35.592C139.446 36.6587 140.214 37.5013 141.195 38.12C142.198 38.7173 143.371 39.016 144.715 39.016ZM164.987 33.896V26.952H181.467V33.896H164.987Z" fill="currentColor"/>
</svg>